<svg width="24" height="24" viewBox="0 0 24 24" fill="none" xmlns="http://www.w3.org/2000/svg">
<g clip-path="url(#clip0_3605_73741)">
<path fill-rule="evenodd" clip-rule="evenodd" d="M11 11.5C11.8284 11.5 12.5 12.1716 12.5 13V22C12.5 22.8284 11.8284 23.5 11 23.5H2C1.60218 23.5 1.22076 23.3419 0.939453 23.0605C0.658167 22.7792 0.5 22.3978 0.5 22V13C0.500032 12.1716 1.17159 11.5 2 11.5H11ZM3.5 20.5H9.5V14.5H3.5V20.5Z" fill="black"/>
<path d="M23.25 15.5C23.3881 15.5 23.5 15.612 23.5 15.75V22C23.4998 22.8283 22.8283 23.5 22 23.5H15.75C15.612 23.5 15.5002 23.3879 15.5 23.25V20.75C15.5 20.6119 15.6119 20.5 15.75 20.5H20.5V15.75C20.5 15.612 20.6121 15.5001 20.75 15.5H23.25Z" fill="black"/>
<path d="M17 12C18.1045 12 19 12.8955 19 14C19 15.1046 18.1046 16 17 16C15.8954 16 15 15.1046 15 14C15 12.8955 15.8955 12 17 12Z" fill="black"/>
<path fill-rule="evenodd" clip-rule="evenodd" d="M22 0.5C22.8284 0.500001 23.5 1.17161 23.5 2V8C23.5 8.39781 23.3418 8.77925 23.0605 9.06055C22.7792 9.34185 22.3978 9.5 22 9.5H16C15.6022 9.5 15.2208 9.34185 14.9395 9.06055C14.6582 8.77925 14.5 8.39781 14.5 8V2C14.5 1.6022 14.6582 1.22074 14.9395 0.939453C15.2208 0.658167 15.6022 0.5 16 0.5H22ZM17.5 6.5H20.5V3.5H17.5V6.5Z" fill="black"/>
<path d="M10 5C11.1045 5 12 5.89546 12 7C12 8.10457 11.1046 9 10 9C8.89543 9 8 8.10457 8 7C8.00003 5.89546 8.89545 5 10 5Z" fill="black"/>
<path d="M8.25 0.5C8.38807 0.5 8.5 0.611929 8.5 0.75V3.25C8.5 3.38807 8.38807 3.5 8.25 3.5H3.5V8.25C3.5 8.38807 3.38807 8.5 3.25 8.5H0.75C0.611929 8.5 0.5 8.38807 0.5 8.25V2C0.5 1.17157 1.17157 0.5 2 0.5H8.25Z" fill="black"/>
</g>
<defs>
<clipPath id="clip0_3605_73741">
<rect width="24" height="24" fill="white"/>
</clipPath>
</defs>
</svg>
