<svg width="17" height="12" viewBox="0 0 17 12" fill="none" xmlns="http://www.w3.org/2000/svg">
<path d="M6.11524 8.9189C7.5351 7.69306 9.6153 7.69308 11.0352 8.9189C11.1066 8.98484 11.1475 9.07842 11.1494 9.17671C11.1514 9.27497 11.1137 9.36959 11.0449 9.43843L8.82227 11.7285C8.7571 11.7958 8.66792 11.8339 8.5752 11.8339C8.4825 11.8339 8.3933 11.7958 8.32813 11.7285L6.1045 9.43843C6.03599 9.36958 5.99802 9.27483 6.00001 9.17671C6.00204 9.07842 6.04376 8.98479 6.11524 8.9189ZM3.10938 6.17867C6.16843 3.2741 10.9058 3.27415 13.9649 6.17867C14.0339 6.24678 14.0742 6.34042 14.0752 6.43843C14.0761 6.53629 14.0383 6.63072 13.9707 6.70015L12.6856 8.02535C12.5532 8.16061 12.339 8.16368 12.2031 8.03218C11.1986 7.10366 9.89135 6.58874 8.53614 6.58882C7.18186 6.58942 5.87595 7.10429 4.87208 8.03218C4.7362 8.16375 4.52204 8.16063 4.38966 8.02535L3.1045 6.70015C3.0368 6.63081 2.99919 6.53631 3.00001 6.43843C3.00091 6.34055 3.0405 6.24675 3.10938 6.17867ZM0.107429 3.44234C4.79934 -1.14745 12.2016 -1.14745 16.8936 3.44234C16.9614 3.51051 16.9995 3.60396 17 3.70113C17.0004 3.79805 16.9633 3.89106 16.8965 3.95992L15.6094 5.28609C15.4768 5.42195 15.2615 5.42386 15.127 5.28999C13.3394 3.55527 10.9675 2.58801 8.50098 2.58785C6.03422 2.58784 3.66186 3.55515 1.87403 5.28999C1.73958 5.42405 1.52412 5.42209 1.39161 5.28609L0.1045 3.95992C0.0374507 3.89088 -0.000618945 3.79736 7.61398e-06 3.70015C0.000747947 3.60311 0.0396133 3.51036 0.107429 3.44234Z" fill="black"/>
</svg>
