<svg width="24" height="24" viewBox="0 0 24 24" fill="none" xmlns="http://www.w3.org/2000/svg">
<path d="M10.8232 1.05371C10.9209 0.95608 11.0791 0.95608 11.1768 1.05371L12.9443 2.82129C13.042 2.91892 13.042 3.07717 12.9443 3.1748L5.62109 10.498H22.75C22.888 10.498 22.9999 10.6101 23 10.748V13.248C23 13.3861 22.8881 13.498 22.75 13.498H5.62109L12.9443 20.8213C13.042 20.9189 13.042 21.0772 12.9443 21.1748L11.1768 22.9424C11.0791 23.04 10.9209 23.04 10.8232 22.9424L0.939453 13.0586C0.658208 12.7773 0.5 12.3958 0.5 11.998C0.50005 11.6003 0.658193 11.2188 0.939453 10.9375L10.8232 1.05371Z" fill="black"/>
</svg>
