<svg width="24" height="24" viewBox="0 0 24 24" fill="none" xmlns="http://www.w3.org/2000/svg">
<path d="M19.8213 2.05371C19.9189 1.95611 20.0772 1.95618 20.1748 2.05371L21.9424 3.82129C22.04 3.91892 22.04 4.07717 21.9424 4.1748L14.1191 11.998L21.9424 19.8213C22.04 19.9189 22.04 20.0772 21.9424 20.1748L20.1748 21.9424C20.0772 22.04 19.9189 22.04 19.8213 21.9424L11.998 14.1191L4.1748 21.9424C4.07717 22.04 3.91892 22.04 3.82129 21.9424L2.05371 20.1748C1.95618 20.0772 1.95611 19.9189 2.05371 19.8213L9.87695 11.998L2.05371 4.1748C1.95617 4.07717 1.95611 3.91889 2.05371 3.82129L3.82129 2.05371C3.91889 1.95611 4.07717 1.95617 4.1748 2.05371L11.998 9.87695L19.8213 2.05371Z" fill="black"/>
</svg>
